<svg xmlns="http://www.w3.org/2000/svg" xmlns:xlink="http://www.w3.org/1999/xlink" width="154.283" height="150.877" viewBox="0 0 154.283 150.877">
  <defs>
    <clipPath id="clip-path">
      <rect id="Rectangle_4" data-name="Rectangle 4" width="75.621" height="84.706" transform="translate(838.017 425.303) rotate(-2)" fill="#fff"/>
    </clipPath>
    <clipPath id="clip-path-2">
      <rect width="103.138" height="79.717" fill="none"/>
    </clipPath>
    <clipPath id="clip-path-3">
      <rect id="Rectangle_5" data-name="Rectangle 5" width="31.621" height="84.706" transform="translate(881.99 423.768) rotate(-2)" fill="#fff" stroke="#ababab" stroke-width="1"/>
    </clipPath>
  </defs>
  <g id="Group_2" data-name="Group 2" transform="translate(-795.041 -361.031) rotate(-3)">
    <path id="Path_16" data-name="Path 16" d="M1071.979,444.524c17.312-.364,27.44,1.982,27.44,16.464s-20.58,24.391-27.44,41.465,3.659,17.226,0,26.83-1.829,8.689-14.635,11.586-25.292-1.039-40.232-6.985-19.526-16.8-19.526-16.8S1054.667,444.888,1071.979,444.524Z" transform="translate(-177.503 6)" fill="#4a4a4a"/>
    <path id="Path_15" data-name="Path 15" d="M1007.062,418.938c7.544-3.888,15.167-15.55,15.167-15.55s7.621-3.049,19.074,0,26.736,12.2,26.736,12.2,18.857,7.019,2.441,33.4-43.952,56.069-68.108,72.134a15.227,15.227,0,0,1-15.583,1.1s-6.6-3.6-12.091-13.76c-8.3-15.342-1.342-37.724-5.514-48.7s-.115-1.016-.115-1.016-8.912-14.072-9.85-14.541c0,0-2.8-9.39-1.039-15.7s8.074-9.553,8.074-9.553,7.23-11.042,18.759-9.121,5.059,5.167,10.1,8S999.517,422.825,1007.062,418.938Z" transform="translate(-167.956 7.145)" fill="#dedede"/>
    <rect id="Rectangle_3" data-name="Rectangle 3" width="24" height="35" rx="3" transform="translate(847 522)" fill="#313131"/>
    <rect id="Rectangle_2" data-name="Rectangle 2" width="18.334" height="30" rx="8" transform="matrix(1, -0.017, 0.017, 1, 849.44, 507.139)" fill="#b5b5b5"/>
    <path id="Path_4" data-name="Path 4" d="M24,0H36A24,24,0,0,1,60,24V70A24,24,0,0,1,36,94H24A24,24,0,0,1,0,70V24A24,24,0,0,1,24,0Z" transform="translate(823.378 421.076) rotate(-2)" fill="#434343"/>
    <path id="Path_3" data-name="Path 3" d="M22.649,0C35.157,0,45.3,9.685,45.3,21.633V68.158c0,4.1-.384,8.752-2.495,12.964-3.657,7.306-11.327,13.1-19.545,13.1-6.792,0-16.7-.392-21.057-5.138C-1.092,85.495,0,73.619,0,68.158V21.633C0,15.133-.651,6.71,4.336,2.55,8.082-.58,16.945,0,22.649,0Z" transform="translate(838.072 420.563) rotate(-2)" fill="#676767"/>
    <path id="Path_1" data-name="Path 1" d="M923.122,435.334c1.2-2.335,11.369-9.868,12.479-9.868.765,0,10.975-5.27,18.494-3.389a6.068,6.068,0,0,1,3.46,1.964c.775.841,1.6,2.567,2.68,5.566,6.592,18.267,2.78,69.726,2.78,69.726a5.823,5.823,0,0,1-4.049,2.605c-2.87.373-6.439-1.1-6.125-2.458.555-2.409-3.2-9.934-3.416-18.941a55.188,55.188,0,0,1,2.562-17.088s1.18-6.058-6.661-11.879-13.967-.371-19.518-4.431S921.927,437.669,923.122,435.334Z" transform="matrix(0.996, 0.087, -0.087, 0.996, -39.369, -75.895)" fill="#9e9e9e"/>
    <circle id="Ellipse_1" data-name="Ellipse 1" cx="5" cy="5" r="5" transform="translate(854 521)" fill="#e94823"/>
    <g id="Mask_Group_1" data-name="Mask Group 1" clip-path="url(#clip-path)">
      <g id="Repeat_Grid_1" data-name="Repeat Grid 1" transform="translate(802.431 429.788)" clip-path="url(#clip-path-2)">
        <g transform="translate(-797.815 -434.788)">
          <path id="Path_2" data-name="Path 2" d="M0,9S9.644,6.518,24.248,4.187C30.6,3.172,38.226,2.156,46.363,1.445,72.113-.8,103,0,103,0" transform="translate(797.94 435.5)" fill="none" stroke="#ababab" stroke-width="3"/>
        </g>
        <g transform="translate(-797.815 -426.788)">
          <path id="Path_2-2" data-name="Path 2" d="M0,9S9.644,6.518,24.248,4.187C30.6,3.172,38.226,2.156,46.363,1.445,72.113-.8,103,0,103,0" transform="translate(797.94 435.5)" fill="none" stroke="#ababab" stroke-width="3"/>
        </g>
        <g transform="translate(-797.815 -418.788)">
          <path id="Path_2-3" data-name="Path 2" d="M0,9S9.644,6.518,24.248,4.187C30.6,3.172,38.226,2.156,46.363,1.445,72.113-.8,103,0,103,0" transform="translate(797.94 435.5)" fill="none" stroke="#ababab" stroke-width="3"/>
        </g>
        <g transform="translate(-797.815 -410.788)">
          <path id="Path_2-4" data-name="Path 2" d="M0,9S9.644,6.518,24.248,4.187C30.6,3.172,38.226,2.156,46.363,1.445,72.113-.8,103,0,103,0" transform="translate(797.94 435.5)" fill="none" stroke="#ababab" stroke-width="3"/>
        </g>
        <g transform="translate(-797.815 -402.788)">
          <path id="Path_2-5" data-name="Path 2" d="M0,9S9.644,6.518,24.248,4.187C30.6,3.172,38.226,2.156,46.363,1.445,72.113-.8,103,0,103,0" transform="translate(797.94 435.5)" fill="none" stroke="#ababab" stroke-width="3"/>
        </g>
        <g transform="translate(-797.815 -394.788)">
          <path id="Path_2-6" data-name="Path 2" d="M0,9S9.644,6.518,24.248,4.187C30.6,3.172,38.226,2.156,46.363,1.445,72.113-.8,103,0,103,0" transform="translate(797.94 435.5)" fill="none" stroke="#ababab" stroke-width="3"/>
        </g>
        <g transform="translate(-797.815 -386.788)">
          <path id="Path_2-7" data-name="Path 2" d="M0,9S9.644,6.518,24.248,4.187C30.6,3.172,38.226,2.156,46.363,1.445,72.113-.8,103,0,103,0" transform="translate(797.94 435.5)" fill="none" stroke="#ababab" stroke-width="3"/>
        </g>
        <g transform="translate(-797.815 -378.788)">
          <path id="Path_2-8" data-name="Path 2" d="M0,9S9.644,6.518,24.248,4.187C30.6,3.172,38.226,2.156,46.363,1.445,72.113-.8,103,0,103,0" transform="translate(797.94 435.5)" fill="none" stroke="#ababab" stroke-width="3"/>
        </g>
        <g transform="translate(-797.815 -370.788)">
          <path id="Path_2-9" data-name="Path 2" d="M0,9S9.644,6.518,24.248,4.187C30.6,3.172,38.226,2.156,46.363,1.445,72.113-.8,103,0,103,0" transform="translate(797.94 435.5)" fill="none" stroke="#ababab" stroke-width="3"/>
        </g>
        <g transform="translate(-797.815 -362.788)">
          <path id="Path_2-10" data-name="Path 2" d="M0,9S9.644,6.518,24.248,4.187C30.6,3.172,38.226,2.156,46.363,1.445,72.113-.8,103,0,103,0" transform="translate(797.94 435.5)" fill="none" stroke="#ababab" stroke-width="3"/>
        </g>
      </g>
    </g>
    <g id="Mask_Group_2" data-name="Mask Group 2" transform="translate(-81.256 2.858)" clip-path="url(#clip-path-3)">
      <g id="Repeat_Grid_2" data-name="Repeat Grid 2" transform="translate(867.431 428.788)" clip-path="url(#clip-path-2)">
        <g transform="translate(-797.815 -434.788)">
          <path id="Path_5" data-name="Path 5" d="M0,9S9.644,6.518,24.248,4.187C30.6,3.172,38.226,2.156,46.363,1.445,72.113-.8,103,0,103,0" transform="translate(797.94 435.5)" fill="none" stroke="#ababab" stroke-width="3"/>
        </g>
        <g transform="translate(-797.815 -426.788)">
          <path id="Path_6" data-name="Path 6" d="M0,9S9.644,6.518,24.248,4.187C30.6,3.172,38.226,2.156,46.363,1.445,72.113-.8,103,0,103,0" transform="translate(797.94 435.5)" fill="none" stroke="#ababab" stroke-width="3"/>
        </g>
        <g transform="translate(-797.815 -418.788)">
          <path id="Path_7" data-name="Path 7" d="M0,9S9.644,6.518,24.248,4.187C30.6,3.172,38.226,2.156,46.363,1.445,72.113-.8,103,0,103,0" transform="translate(797.94 435.5)" fill="none" stroke="#ababab" stroke-width="3"/>
        </g>
        <g transform="translate(-797.815 -410.788)">
          <path id="Path_8" data-name="Path 8" d="M0,9S9.644,6.518,24.248,4.187C30.6,3.172,38.226,2.156,46.363,1.445,72.113-.8,103,0,103,0" transform="translate(797.94 435.5)" fill="none" stroke="#ababab" stroke-width="3"/>
        </g>
        <g transform="translate(-797.815 -402.788)">
          <path id="Path_9" data-name="Path 9" d="M0,9S9.644,6.518,24.248,4.187C30.6,3.172,38.226,2.156,46.363,1.445,72.113-.8,103,0,103,0" transform="translate(797.94 435.5)" fill="none" stroke="#ababab" stroke-width="3"/>
        </g>
        <g transform="translate(-797.815 -394.788)">
          <path id="Path_10" data-name="Path 10" d="M0,9S9.644,6.518,24.248,4.187C30.6,3.172,38.226,2.156,46.363,1.445,72.113-.8,103,0,103,0" transform="translate(797.94 435.5)" fill="none" stroke="#ababab" stroke-width="3"/>
        </g>
        <g transform="translate(-797.815 -386.788)">
          <path id="Path_11" data-name="Path 11" d="M0,9S9.644,6.518,24.248,4.187C30.6,3.172,38.226,2.156,46.363,1.445,72.113-.8,103,0,103,0" transform="translate(797.94 435.5)" fill="none" stroke="#ababab" stroke-width="3"/>
        </g>
        <g transform="translate(-797.815 -378.788)">
          <path id="Path_12" data-name="Path 12" d="M0,9S9.644,6.518,24.248,4.187C30.6,3.172,38.226,2.156,46.363,1.445,72.113-.8,103,0,103,0" transform="translate(797.94 435.5)" fill="none" stroke="#ababab" stroke-width="3"/>
        </g>
        <g transform="translate(-797.815 -370.788)">
          <path id="Path_13" data-name="Path 13" d="M0,9S9.644,6.518,24.248,4.187C30.6,3.172,38.226,2.156,46.363,1.445,72.113-.8,103,0,103,0" transform="translate(797.94 435.5)" fill="none" stroke="#ababab" stroke-width="3"/>
        </g>
        <g transform="translate(-797.815 -362.788)">
          <path id="Path_14" data-name="Path 14" d="M0,9S9.644,6.518,24.248,4.187C30.6,3.172,38.226,2.156,46.363,1.445,72.113-.8,103,0,103,0" transform="translate(797.94 435.5)" fill="none" stroke="#ababab" stroke-width="3"/>
        </g>
      </g>
    </g>
    <g id="audio-speaker-on-svgrepo-com" transform="translate(748.958 479.518) rotate(-20)">
      <g id="Group_3" data-name="Group 3" transform="translate(-23.676 38.522)">
        <path id="Path_18" data-name="Path 18" d="M69.826,22.837a2.612,2.612,0,0,0-3.694,3.694,12.433,12.433,0,0,1,0,17.577,2.635,2.635,0,0,0,0,3.694,2.568,2.568,0,0,0,3.657-.037A17.557,17.557,0,0,0,69.826,22.837Z" transform="translate(0 -16.227)" fill="#2b2b2b"/>
        <path id="Path_19" data-name="Path 19" d="M83.831,7.144a2.636,2.636,0,0,0,0,3.694,20.72,20.72,0,0,1,0,29.331,2.631,2.631,0,0,0,1.829,4.478,2.6,2.6,0,0,0,1.829-.746,25.947,25.947,0,0,0,0-36.72A2.556,2.556,0,0,0,83.831,7.144Z" transform="translate(-11.095 -6.393)" fill="#2b2b2b"/>
      </g>
      <path id="Path_17" data-name="Path 17" d="M21.465,13.624l-9.814,7.349H2.689A2.7,2.7,0,0,0,0,23.662V42.393a2.7,2.7,0,0,0,2.689,2.689h8.962l9.814,7.349a2.675,2.675,0,0,0,4.3-2.151v-34.5A2.681,2.681,0,0,0,21.465,13.624Z" transform="translate(7.934 24.578)" fill="#2b2b2b"/>
    </g>
  </g>
</svg>
