<svg xmlns="http://www.w3.org/2000/svg" width="19.75" height="20.75" viewBox="0 0 19.75 20.75">
  <g id="speak" transform="translate(-2 -1.25)">
    <path id="Path_20" data-name="Path 20" d="M18.357,1.614a.75.75,0,0,1,1.029-.257L19,2l.386-.643h0l0,0,.01.006.028.018.086.058c.07.049.165.12.277.212a5.307,5.307,0,0,1,.8.838A5.65,5.65,0,0,1,21.75,6a5.65,5.65,0,0,1-1.156,3.507,5.307,5.307,0,0,1-.8.838c-.111.093-.206.163-.277.212l-.086.058-.015.01-.013.008-.01.006,0,0h0s0,0-.387-.642l.386.643A.75.75,0,0,1,18.61,9.36l.006,0,.041-.028c.039-.027.1-.072.177-.136a3.8,3.8,0,0,0,.573-.6A4.151,4.151,0,0,0,20.25,6a4.151,4.151,0,0,0-.844-2.593,3.8,3.8,0,0,0-.573-.6c-.076-.063-.137-.109-.177-.136l-.041-.027-.006,0A.75.75,0,0,1,18.357,1.614Z" fill="#2B2D38"/>
    <path id="Path_21" data-name="Path 21" d="M10,10A4,4,0,1,0,6,6,4,4,0,0,0,10,10Z" fill="#2B2D38"/>
    <path id="Path_22" data-name="Path 22" d="M2,17.5C2,19.985,2,22,10,22s8-2.015,8-4.5S14.418,13,10,13,2,15.015,2,17.5Z" fill="#2B2D38"/>
    <path id="Path_23" data-name="Path 23" d="M17.386,3.357a.75.75,0,0,0-1.029.257l.248,1.023.008.005c.012.008.034.024.063.049a1.524,1.524,0,0,1,.229.24A1.7,1.7,0,0,1,17.25,6a1.7,1.7,0,0,1-.344,1.068,1.525,1.525,0,0,1-.229.24c-.029.024-.052.041-.063.049l-.008.005a.75.75,0,0,0,.781,1.281L17,8l.386.643h0l0,0,.007,0,.019-.012.055-.037c.043-.03.1-.072.163-.125a3.032,3.032,0,0,0,.458-.478A3.2,3.2,0,0,0,18.75,6a3.2,3.2,0,0,0-.656-1.982,3.031,3.031,0,0,0-.458-.478c-.064-.054-.12-.1-.163-.125l-.055-.037L17.4,3.365l-.007,0,0,0h0s0,0-.387.642Z" fill="#2B2D38"/>
  </g>
</svg>
